<svg width="30" height="30" viewBox="0 0 30 30" fill="none" xmlns="http://www.w3.org/2000/svg">
<path d="M29.9492 4.68341C29.948 3.43005 29.4589 2.25245 28.5717 1.36737C26.7421 -0.45819 23.7675 -0.455672 21.9399 1.37424L3.0606 20.3295C2.44652 20.9432 1.97777 21.7028 1.70494 22.5266L1.68732 22.5801L0 30L7.44048 28.3342L7.49587 28.3159C8.31985 28.0431 9.07996 27.5748 9.69565 26.9593L28.5775 8.00173C29.463 7.11504 29.9503 5.93653 29.9492 4.68341V4.68341ZM4.12605 26.6762L3.33709 25.8868L3.90678 23.381L6.63802 26.1138L4.12605 26.6762ZM26.9192 6.34783L8.58832 24.7524L5.26885 21.4309L17.8255 8.82387L19.7376 10.736L21.3936 9.07999L19.4781 7.16448L21.2594 5.37623L23.1784 7.29517L24.8343 5.63922L22.912 3.71684L23.5979 3.02813C24.5123 2.11261 26.0016 2.11123 26.9176 3.02516C27.3616 3.46827 27.6066 4.05787 27.6072 4.68524C27.6077 5.31283 27.3639 5.90266 26.9192 6.34783V6.34783ZM12.3198 27.6327H29.9492V29.9746H9.98587L12.3198 27.6327Z" fill="#555555"/>
</svg>
