<svg width="26" height="35" viewBox="0 0 26 35" fill="none" xmlns="http://www.w3.org/2000/svg">
<path d="M25.5625 0.0829393C25.2923 -0.0546843 24.9735 -0.0173293 24.7382 0.167479L3.78733 16.8828C3.60458 17.0342 3.48987 17.2623 3.48987 17.4982C3.48987 17.7322 3.60458 17.9701 3.78733 18.1156L24.7382 34.8309C24.8762 34.943 25.0532 35 25.2223 35L25.5625 34.9233C25.8328 34.7975 26 34.5163 26 34.2136V0.792684C26 0.489912 25.8328 0.210733 25.5625 0.0829393Z" fill="white"/>
<path d="M5.78015 0.0652448H0.612428C0.278023 0.0652448 0 0.423066 0 0.853631V34.1507C0 34.5852 0.278023 34.943 0.612428 34.943H5.77821C6.1165 34.943 6.39064 34.5832 6.39064 34.1507V0.853631C6.39258 0.423066 6.1165 0.0652448 5.78015 0.0652448Z" fill="white"/>
</svg>
