<svg width="26" height="35" viewBox="0 0 26 35" fill="none" xmlns="http://www.w3.org/2000/svg">
<path d="M0.43745 0.0829393C0.707695 -0.0546843 1.02655 -0.0173293 1.2618 0.167479L22.2127 16.8828C22.3954 17.0342 22.5101 17.2623 22.5101 17.4982C22.5101 17.7322 22.3954 17.9701 22.2127 18.1156L1.2618 34.8309C1.12376 34.943 0.946835 35 0.777689 35L0.43745 34.9233C0.167204 34.7975 0 34.5163 0 34.2136V0.792684C0 0.489912 0.167204 0.210733 0.43745 0.0829393Z" fill="white"/>
<path d="M20.2198 0.0652448H25.3876C25.722 0.0652448 26 0.423066 26 0.853631V34.1507C26 34.5852 25.722 34.943 25.3876 34.943H20.2218C19.8835 34.943 19.6094 34.5832 19.6094 34.1507V0.853631C19.6074 0.423066 19.8835 0.0652448 20.2198 0.0652448Z" fill="white"/>
</svg>
